<svg width="70" height="80" viewBox="0 0 70 80" fill="none" xmlns="http://www.w3.org/2000/svg">
<path d="M35.2985 0.118036C35.1288 0.183138 33.8783 0.699883 32.5243 1.26952C31.1703 1.83916 29.8909 2.37625 29.6797 2.4617L29.2987 2.62038L27.982 5.01694L26.6653 7.4135L26.3341 7.57625C26.1519 7.66577 25.8041 7.84887 25.5598 7.98314L25.1209 8.2232L24.8766 8.18251C24.7441 8.16217 24.5329 8.1052 24.4087 8.06045C24.1312 7.95872 23.6758 7.62508 23.4729 7.38095L23.3197 7.19785L23.3611 6.39628L23.4025 5.59472L22.9222 4.50833C22.6572 3.91021 22.4294 3.42195 22.4129 3.43009C22.4005 3.43416 21.4812 4.61005 20.3757 6.04229L18.3675 8.64636L18.3634 11.6126V14.5747L18.2391 14.8066C17.9493 15.3396 17.5311 15.7262 17.1046 15.8482C16.6698 15.9784 15.9411 15.9011 15.5105 15.6855C15.3241 15.596 15.3159 15.5838 15.1585 15.1403L15.0012 14.6886L13.7962 13.6917C13.1337 13.1424 12.5872 12.703 12.5789 12.7071C12.5623 12.7274 11.7798 19.3068 11.7798 19.4451C11.7798 19.5102 12.2891 20.503 13.0841 21.9759C13.8004 23.3065 14.4339 24.5312 14.496 24.698C14.6244 25.0642 14.6741 25.6257 14.5954 25.8536C14.525 26.0692 14.1275 26.4517 13.8418 26.5819C13.5768 26.704 13.1586 26.8138 12.935 26.8138C12.8522 26.8138 12.6203 26.7568 12.4174 26.6877C11.4982 26.3744 9.03038 25.5525 9.0014 25.5525C8.98484 25.5525 9.11734 25.9309 9.29538 26.3947C9.46929 26.8626 9.99929 28.2583 10.4713 29.5033L11.3326 31.7656L13.8004 33.2263C16.1067 34.5894 16.293 34.7074 16.6077 35.0126C17.0342 35.4276 17.1709 35.6717 17.1957 36.0949C17.2371 36.7703 16.9804 37.3155 16.4628 37.641L16.2765 37.759H15.5643H14.8521L13.5809 38.2188C12.8853 38.4711 12.318 38.6949 12.3222 38.7193C12.3305 38.7396 13.5602 39.704 15.0633 40.8595L17.7919 42.9672H18.2557C18.5083 42.9672 19.825 42.9957 21.179 43.0282C23.7337 43.0892 23.7627 43.0892 24.1147 43.2723C24.6737 43.5531 24.9718 44.2489 24.8062 44.8795C24.653 45.4573 24.4873 45.6811 23.1541 47.0889C22.475 47.801 21.9243 48.395 21.9326 48.3991C21.945 48.4113 22.7483 48.5212 26.9137 49.0908C27.6425 49.1925 28.3423 49.282 28.4706 49.2983L28.7025 49.3227L30.955 48.0736C32.193 47.3819 33.3027 46.7756 33.4145 46.7268C33.5305 46.6739 33.8079 46.6007 34.0315 46.564C34.7395 46.446 35.2116 46.5803 35.547 47.0035C35.7788 47.2883 36.168 48.1143 36.168 48.3218C36.168 48.3462 36.0273 48.5903 35.8575 48.863L35.547 49.3512L35.3565 50.5963C35.253 51.2839 35.1743 51.8739 35.1826 51.9105C35.1909 51.9716 35.7043 51.7844 38.3088 50.7794L41.4225 49.5791L42.7806 47.2435C44.2216 44.7615 44.3209 44.6151 44.793 44.3099C45.323 43.9681 46.031 43.8705 46.4782 44.0739C46.7391 44.1919 47.1283 44.4727 47.3643 44.7127L47.5299 44.8795L47.4761 45.6241L47.4264 46.3728L47.9523 47.4999C48.2421 48.1183 48.4947 48.6188 48.5113 48.6148C48.532 48.6066 49.4636 47.4592 50.5816 46.0595L52.6146 43.5165L52.6022 40.6479C52.5939 37.8038 52.5981 37.7753 52.685 37.4539C52.9293 36.5953 53.3765 36.0542 53.9603 35.924C54.1425 35.8833 54.2046 35.8874 54.4531 35.9606C54.7429 36.046 55.157 36.2698 55.3309 36.4285C55.3847 36.4773 55.6166 36.8069 55.8443 37.1568L56.2584 37.7997L57.1569 38.4955C57.6496 38.882 58.0761 39.2116 58.1051 39.236C58.1341 39.2564 58.1631 39.2686 58.1713 39.2604C58.1879 39.2442 58.2914 38.4955 58.838 34.4144L59.1113 32.3963L57.7904 30.2642C56.3991 28.0263 56.3702 27.9694 56.2294 27.2573C56.0927 26.5371 56.1797 25.9838 56.482 25.6867C56.6931 25.4792 57.0699 25.288 57.4177 25.2066C57.8566 25.1049 57.8981 25.1171 58.4198 25.4507C58.6848 25.6216 58.9456 25.7763 58.9995 25.7966C59.1195 25.8414 61.8234 26.4476 61.902 26.4476C61.931 26.4476 61.4424 25.2554 60.7137 23.5669C60.0346 21.9841 59.397 20.5071 59.3017 20.2874L59.1278 19.8805L56.9954 18.7941L54.863 17.7077L54.5524 17.3415C53.7781 16.4342 53.422 15.4698 53.6788 14.9816C53.774 14.8025 54.0763 14.5096 54.362 14.3224L54.5648 14.1881L55.3433 14.237L56.1217 14.2817L57.2852 13.7446C57.9229 13.4476 58.4446 13.1953 58.4446 13.1831C58.4405 13.1709 57.277 12.2717 55.8526 11.1772L53.2647 9.19566H50.565H47.8653L47.5341 9.06952C47.0041 8.87015 46.3374 8.51209 46.0848 8.29237C45.7577 8.00348 45.6749 7.82852 45.6749 7.4257C45.6791 7.05137 45.766 6.78282 46.0145 6.40442C46.1677 6.16843 46.1759 6.16436 46.7059 5.94057L47.2442 5.71272L48.1303 4.63854L49.0123 3.56029L48.8963 3.53181C48.8301 3.51146 47.4554 3.3365 45.8364 3.13306C44.2216 2.93369 42.702 2.74245 42.4618 2.71397L42.0312 2.657L39.7663 4.05262L37.5055 5.44824L36.9506 5.41162C36.6442 5.39128 36.1225 5.375 35.7871 5.37093H35.1784L35.0501 5.21631C34.8016 4.91929 34.5946 4.35372 34.5946 3.9509C34.5946 3.79221 34.6443 3.69049 34.9838 3.14527L35.3772 2.52273L35.5014 1.43635C35.5718 0.834155 35.6422 0.268584 35.6546 0.170931C35.6712 0.0773476 35.6629 3.93474e-05 35.6463 3.93474e-05C35.6256 0.0041082 35.4683 0.0570034 35.2985 0.118036ZM36.6898 20.6495C38.6524 20.9872 40.2755 22.3584 40.9091 24.222C41.1037 24.7916 41.1782 25.2595 41.1782 25.8943C41.1782 27.3875 40.6648 28.6163 39.6048 29.6661C38.847 30.4148 38.0562 30.8583 37.0086 31.1146C36.5945 31.2204 36.5034 31.2285 35.7333 31.2245C34.9383 31.2245 34.8845 31.2163 34.4083 31.0943C33.7872 30.9315 32.9798 30.549 32.4829 30.1788C31.485 29.4342 30.7811 28.3844 30.4705 27.1719C30.3256 26.6063 30.2884 25.6379 30.3877 25.0642C30.6817 23.3838 31.7127 21.9759 33.2282 21.1825C33.6423 20.9669 34.3213 20.7349 34.7851 20.6536C35.2323 20.5722 36.2302 20.5722 36.6898 20.6495Z" fill="#2F3035"/>
<path d="M4.5 74.2C3.78 74.2 3.12 74.02 2.52 73.66C1.93333 73.2867 1.46 72.8 1.1 72.2C0.74 71.5867 0.56 70.9133 0.56 70.18L0.58 63.84C0.58 63.1067 0.753333 62.44 1.1 61.84C1.46 61.24 1.94 60.76 2.54 60.4C3.14 60.04 3.79333 59.86 4.5 59.86C5.22 59.86 5.87333 60.04 6.46 60.4C7.04667 60.76 7.51333 61.24 7.86 61.84C8.22 62.44 8.4 63.1067 8.4 63.84L8.42 70.18C8.42 70.9133 8.24 71.5867 7.88 72.2C7.53333 72.8 7.06 73.2867 6.46 73.66C5.87333 74.02 5.22 74.2 4.5 74.2ZM4.5 71.78C4.9 71.78 5.24667 71.62 5.54 71.3C5.84667 70.9667 6 70.5933 6 70.18L5.98 63.84C5.98 63.4 5.84 63.0267 5.56 62.72C5.28 62.4133 4.92667 62.26 4.5 62.26C4.08667 62.26 3.73333 62.4133 3.44 62.72C3.14667 63.0133 3 63.3867 3 63.84V70.18C3 70.62 3.14667 71 3.44 71.32C3.73333 71.6267 4.08667 71.78 4.5 71.78ZM11.7509 74C11.6976 74 11.6643 73.9667 11.6509 73.9L8.89094 60.16C8.8776 60.1067 8.90427 60.08 8.97094 60.08H11.2309C11.2843 60.08 11.3176 60.1067 11.3309 60.16L12.9709 69.32L14.5709 60.16C14.5843 60.1067 14.6176 60.08 14.6709 60.08H16.9109C16.9776 60.08 17.0043 60.1067 16.9909 60.16L14.2709 73.9C14.2576 73.9667 14.2243 74 14.1709 74H11.7509ZM18.2433 74C18.1899 74 18.1633 73.9667 18.1633 73.9L18.1833 60.16C18.1833 60.1067 18.2099 60.08 18.2633 60.08H24.6833C24.7366 60.08 24.7633 60.1133 24.7633 60.18V62.42C24.7633 62.4733 24.7366 62.5 24.6833 62.5H20.5833V65.62H24.6833C24.7366 65.62 24.7633 65.6467 24.7633 65.7L24.7833 67.96C24.7833 68.0133 24.7566 68.04 24.7033 68.04H20.5833V71.54H24.7033C24.7566 71.54 24.7833 71.5733 24.7833 71.64V73.92C24.7833 73.9733 24.7566 74 24.7033 74H18.2433ZM26.6417 74C26.5884 74 26.5617 73.9667 26.5617 73.9L26.6017 60.16C26.6017 60.1067 26.6284 60.08 26.6817 60.08H30.7217C31.4417 60.08 32.1017 60.26 32.7017 60.62C33.3151 60.9667 33.8017 61.44 34.1617 62.04C34.5217 62.6267 34.7017 63.2933 34.7017 64.04C34.7017 64.5333 34.6284 64.98 34.4817 65.38C34.3351 65.7667 34.1617 66.1 33.9617 66.38C33.7617 66.6467 33.5817 66.8467 33.4217 66.98C34.1417 67.78 34.5017 68.72 34.5017 69.8L34.5217 73.9C34.5217 73.9667 34.4884 74 34.4217 74H32.1617C32.1084 74 32.0817 73.98 32.0817 73.94V69.8C32.0817 69.32 31.9084 68.9067 31.5617 68.56C31.2284 68.2 30.8151 68.02 30.3217 68.02H29.0017L28.9817 73.9C28.9817 73.9667 28.9551 74 28.9017 74H26.6417ZM29.0017 65.62H30.7217C31.1351 65.62 31.5017 65.4667 31.8217 65.16C32.1417 64.8533 32.3017 64.48 32.3017 64.04C32.3017 63.6133 32.1417 63.2467 31.8217 62.94C31.5151 62.6333 31.1484 62.48 30.7217 62.48H29.0017V65.62ZM36.2902 74C36.2368 74 36.2102 73.9667 36.2102 73.9L36.2302 60.18C36.2302 60.1133 36.2635 60.08 36.3302 60.08H38.5502C38.6168 60.08 38.6502 60.1133 38.6502 60.18L38.6302 71.54H42.7502C42.8168 71.54 42.8502 71.5733 42.8502 71.64V73.9C42.8502 73.9667 42.8168 74 42.7502 74H36.2902ZM47.5859 74.2C46.8659 74.2 46.2059 74.02 45.6059 73.66C45.0193 73.2867 44.5459 72.8 44.1859 72.2C43.8259 71.5867 43.6459 70.9133 43.6459 70.18L43.6659 63.84C43.6659 63.1067 43.8393 62.44 44.1859 61.84C44.5459 61.24 45.0259 60.76 45.6259 60.4C46.2259 60.04 46.8793 59.86 47.5859 59.86C48.3059 59.86 48.9593 60.04 49.5459 60.4C50.1326 60.76 50.5993 61.24 50.9459 61.84C51.3059 62.44 51.4859 63.1067 51.4859 63.84L51.5059 70.18C51.5059 70.9133 51.3259 71.5867 50.9659 72.2C50.6193 72.8 50.1459 73.2867 49.5459 73.66C48.9593 74.02 48.3059 74.2 47.5859 74.2ZM47.5859 71.78C47.9859 71.78 48.3326 71.62 48.6259 71.3C48.9326 70.9667 49.0859 70.5933 49.0859 70.18L49.0659 63.84C49.0659 63.4 48.9259 63.0267 48.6459 62.72C48.3659 62.4133 48.0126 62.26 47.5859 62.26C47.1726 62.26 46.8193 62.4133 46.5259 62.72C46.2326 63.0133 46.0859 63.3867 46.0859 63.84V70.18C46.0859 70.62 46.2326 71 46.5259 71.32C46.8193 71.6267 47.1726 71.78 47.5859 71.78ZM51.995 73.9L54.475 60.16C54.4883 60.1067 54.5217 60.08 54.575 60.08H57.475C57.5283 60.08 57.5617 60.1067 57.575 60.16L59.955 73.9C59.9683 73.9667 59.9417 74 59.875 74H57.655C57.6017 74 57.5683 73.9667 57.555 73.9L57.335 72.44H54.615L54.395 73.9C54.3817 73.9667 54.3483 74 54.295 74H52.075C52.0217 74 51.995 73.9667 51.995 73.9ZM55.015 70.3H56.935L56.115 64.68L55.995 63.94L55.915 64.68L55.015 70.3ZM61.3102 74C61.2435 74 61.2102 73.9667 61.2102 73.9L61.2502 60.16C61.2502 60.1067 61.2768 60.08 61.3302 60.08L65.0702 60.06C65.8035 60.0467 66.4702 60.22 67.0702 60.58C67.6835 60.94 68.1702 61.4267 68.5302 62.04C68.8902 62.64 69.0702 63.3067 69.0702 64.04V69.78C69.0702 70.5533 68.8835 71.26 68.5102 71.9C68.1368 72.5267 67.6368 73.0267 67.0102 73.4C66.3835 73.7733 65.6768 73.9667 64.8902 73.98L61.3102 74ZM63.6502 71.54H64.8902C65.3835 71.54 65.7968 71.3667 66.1302 71.02C66.4768 70.6733 66.6502 70.26 66.6502 69.78V64.02C66.6502 63.5933 66.4902 63.2267 66.1702 62.92C65.8635 62.6 65.4968 62.4467 65.0702 62.46L63.6702 62.48L63.6502 71.54Z" fill="#2F3035"/>
</svg>
